<svg class="diagram-root" style="background: #f5f6f6" xmlns="http://www.w3.org/2000/svg" xmlns:xlink="http://www.w3.org/1999/xlink"><style>.diagram-root { font-family: "Helvetica Neue", sans-serif; font-size: 12px; } .t { overflow: visible; } .t-bg { y: 40; fill: #fff;   } .th { fill: #005aa0;   } .tht { fill: #fff; font-size: 14px;  } .tf { fill: #323c46; overflow: visible; } .tf.pk { fill: #005aa0; font-weight: bold; } .tf.fk { font-weight: bold; } .ty { fill: #adb1b5; font-weight: normal; text-anchor: end; } .r { fill: transparent; stroke: #c3c3c3; stroke-width: 1; } .l { stroke: 1; } .i { fill: #c2c7ce; stroke: #c2c7ce; } .i.ix { fill: #afb3b6; stroke: #000; } .fa { fill: transparent; overflow: visible; } .fa .bg.hover { fill: #f7f7f7; } .c { cy: 12; r: 4; stroke: #d2d2dc; fill: #d2d2dc; } .hr { fill: transparent; stroke: #323c46; stroke-opacity: 0.035; stroke-width: 13; } .dc { stroke: #fa5a3c; fill: #fa5a3c; } .x { stroke: white; stroke-width: 1; } .hl .th { fill: #1b9bff; } .hl .tht {  } .fhl .bg { fill: #e7f4ff; } .fhls .bg {  } .r.hl { stroke: #1b9bff; } .dim { opacity: 0.25; }</style><g class="drawing-wrapper" transform="translate(315.05, 170.9828571428572) scale(1,1)"><g class="rs"><path d="M -120.05 -68.09999999999992 m -1, 0 a 1,1 0 1,0 2,0 a 1,1 0 1,0 -2,0 M -120.05 -68.09999999999992 m -0.5, 0 a 0.5,0.5 0 1,0 1,0 a 0.5,0.5 0 1,0 -1,0  M-120.05 -68.09999999999992 L-120.05 -68.09999999999992 -108.05 -68.09999999999992 M -120.05 -62.09999999999992 m -1, 0 a 1,1 0 1,0 2,0 a 1,1 0 1,0 -2,0 M -120.05 -62.09999999999992 m -0.5, 0 a 0.5,0.5 0 1,0 1,0 a 0.5,0.5 0 1,0 -1,0  M-120.05 -62.09999999999992 L-120.05 -62.09999999999992 -113.05 -68.09999999999992 -120.05 -74.09999999999992 M -120.05 -74.09999999999992 m -1, 0 a 1,1 0 1,0 2,0 a 1,1 0 1,0 -2,0 M -120.05 -74.09999999999992 m -0.5, 0 a 0.5,0.5 0 1,0 1,0 a 0.5,0.5 0 1,0 -1,0  M-108.05 -68.09999999999992 Q -80.54 -68.09999999999992, -53.03 -70.29 T 1.9842857142857255 -72.48857142857148 M 13.984285714285726 -72.48857142857148 m -1, 0 a 1,1 0 1,0 2,0 a 1,1 0 1,0 -2,0 M 13.984285714285726 -72.48857142857148 m -0.5, 0 a 0.5,0.5 0 1,0 1,0 a 0.5,0.5 0 1,0 -1,0  M13.984285714285726 -72.48857142857148 L13.984285714285726 -72.48857142857148 1.9842857142857255 -72.48857142857148 M7.9842857142857255 -66.48857142857148 L7.9842857142857255 -66.48857142857148 7.9842857142857255 -78.48857142857148" id="h1785270411" class="r"></path><path d="M 166.98 -72.48857142857148 m -1, 0 a 1,1 0 1,0 2,0 a 1,1 0 1,0 -2,0 M 166.98 -72.48857142857148 m -0.5, 0 a 0.5,0.5 0 1,0 1,0 a 0.5,0.5 0 1,0 -1,0  M166.98 -72.48857142857148 L166.98 -72.48857142857148 178.98 -72.48857142857148 M 166.98 -66.48857142857148 m -1, 0 a 1,1 0 1,0 2,0 a 1,1 0 1,0 -2,0 M 166.98 -66.48857142857148 m -0.5, 0 a 0.5,0.5 0 1,0 1,0 a 0.5,0.5 0 1,0 -1,0  M166.98 -66.48857142857148 L166.98 -66.48857142857148 173.98 -72.48857142857148 166.98 -78.48857142857148 M 166.98 -78.48857142857148 m -1, 0 a 1,1 0 1,0 2,0 a 1,1 0 1,0 -2,0 M 166.98 -78.48857142857148 m -0.5, 0 a 0.5,0.5 0 1,0 1,0 a 0.5,0.5 0 1,0 -1,0  M178.98 -72.48857142857148 Q 224.2 -72.48857142857148, 269.41 -65.74 T 359.8414285714287 -58.9828571428572 M 371.8414285714287 -58.9828571428572 m -1, 0 a 1,1 0 1,0 2,0 a 1,1 0 1,0 -2,0 M 371.8414285714287 -58.9828571428572 m -0.5, 0 a 0.5,0.5 0 1,0 1,0 a 0.5,0.5 0 1,0 -1,0  M371.8414285714287 -58.9828571428572 L371.8414285714287 -58.9828571428572 359.8414285714287 -58.9828571428572 M365.8414285714287 -52.9828571428572 L365.8414285714287 -52.9828571428572 365.8414285714287 -64.9828571428572" id="h3050997975" class="r"></path><path d="M 371.8414285714287 -83.9828571428572 m -1, 0 a 1,1 0 1,0 2,0 a 1,1 0 1,0 -2,0 M 371.8414285714287 -83.9828571428572 m -0.5, 0 a 0.5,0.5 0 1,0 1,0 a 0.5,0.5 0 1,0 -1,0  M371.8414285714287 -83.9828571428572 L371.8414285714287 -83.9828571428572 359.8414285714287 -83.9828571428572 M 371.8414285714287 -77.9828571428572 m -1, 0 a 1,1 0 1,0 2,0 a 1,1 0 1,0 -2,0 M 371.8414285714287 -77.9828571428572 m -0.5, 0 a 0.5,0.5 0 1,0 1,0 a 0.5,0.5 0 1,0 -1,0  M371.8414285714287 -77.9828571428572 L371.8414285714287 -77.9828571428572 364.8414285714287 -83.9828571428572 371.8414285714287 -89.9828571428572 M 371.8414285714287 -89.9828571428572 m -1, 0 a 1,1 0 1,0 2,0 a 1,1 0 1,0 -2,0 M 371.8414285714287 -89.9828571428572 m -0.5, 0 a 0.5,0.5 0 1,0 1,0 a 0.5,0.5 0 1,0 -1,0  M359.8414285714287 -83.9828571428572 C 309.8414285714287 -83.9828571428572, 299.32600000000025 146.81142857142856, 377.3671428571428 146.81142857142856 M 389.3671428571428 146.81142857142856 m -1, 0 a 1,1 0 1,0 2,0 a 1,1 0 1,0 -2,0 M 389.3671428571428 146.81142857142856 m -0.5, 0 a 0.5,0.5 0 1,0 1,0 a 0.5,0.5 0 1,0 -1,0  M389.3671428571428 146.81142857142856 L389.3671428571428 146.81142857142856 377.3671428571428 146.81142857142856 M383.3671428571428 152.81142857142856 L383.3671428571428 152.81142857142856 383.3671428571428 140.81142857142856" id="h2846158366" class="r"></path><path d="M 15.175714285714262 39.955714285714265 m -1, 0 a 1,1 0 1,0 2,0 a 1,1 0 1,0 -2,0 M 15.175714285714262 39.955714285714265 m -0.5, 0 a 0.5,0.5 0 1,0 1,0 a 0.5,0.5 0 1,0 -1,0  M15.175714285714262 39.955714285714265 L15.175714285714262 39.955714285714265 3.175714285714262 39.955714285714265 M 15.175714285714262 45.955714285714265 m -1, 0 a 1,1 0 1,0 2,0 a 1,1 0 1,0 -2,0 M 15.175714285714262 45.955714285714265 m -0.5, 0 a 0.5,0.5 0 1,0 1,0 a 0.5,0.5 0 1,0 -1,0  M15.175714285714262 45.955714285714265 L15.175714285714262 45.955714285714265 8.175714285714262 39.955714285714265 15.175714285714262 33.955714285714265 M 15.175714285714262 33.955714285714265 m -1, 0 a 1,1 0 1,0 2,0 a 1,1 0 1,0 -2,0 M 15.175714285714262 33.955714285714265 m -0.5, 0 a 0.5,0.5 0 1,0 1,0 a 0.5,0.5 0 1,0 -1,0  M3.175714285714262 39.955714285714265 C -27.8813720772337 39.955714285714265, -27.166514934376575 -47.488571428571476, 1.9842857142857255 -47.488571428571476 M 13.984285714285726 -47.488571428571476 m -1, 0 a 1,1 0 1,0 2,0 a 1,1 0 1,0 -2,0 M 13.984285714285726 -47.488571428571476 m -0.5, 0 a 0.5,0.5 0 1,0 1,0 a 0.5,0.5 0 1,0 -1,0  M13.984285714285726 -47.488571428571476 L13.984285714285726 -47.488571428571476 1.9842857142857255 -47.488571428571476 M7.9842857142857255 -41.488571428571476 L7.9842857142857255 -41.488571428571476 7.9842857142857255 -53.488571428571476" id="h1791449050" class="r"></path><path d="M 191.18 64.95571428571427 m -1, 0 a 1,1 0 1,0 2,0 a 1,1 0 1,0 -2,0 M 191.18 64.95571428571427 m -0.5, 0 a 0.5,0.5 0 1,0 1,0 a 0.5,0.5 0 1,0 -1,0  M191.18 64.95571428571427 L191.18 64.95571428571427 203.18 64.95571428571427 M 191.18 70.95571428571427 m -1, 0 a 1,1 0 1,0 2,0 a 1,1 0 1,0 -2,0 M 191.18 70.95571428571427 m -0.5, 0 a 0.5,0.5 0 1,0 1,0 a 0.5,0.5 0 1,0 -1,0  M191.18 70.95571428571427 L191.18 70.95571428571427 198.18 64.95571428571427 191.18 58.955714285714265 M 191.18 58.955714285714265 m -1, 0 a 1,1 0 1,0 2,0 a 1,1 0 1,0 -2,0 M 191.18 58.955714285714265 m -0.5, 0 a 0.5,0.5 0 1,0 1,0 a 0.5,0.5 0 1,0 -1,0  M203.18 64.95571428571427 C 256.396 64.95571428571427, 255.19 278.2414285714286, 205.19 278.2414285714286 M 193.19 278.2414285714286 m -1, 0 a 1,1 0 1,0 2,0 a 1,1 0 1,0 -2,0 M 193.19 278.2414285714286 m -0.5, 0 a 0.5,0.5 0 1,0 1,0 a 0.5,0.5 0 1,0 -1,0  M193.19 278.2414285714286 L193.19 278.2414285714286 205.19 278.2414285714286 M199.19 284.2414285714286 L199.19 284.2414285714286 199.19 272.2414285714286" id="h1537058300" class="r"></path><path d="M 389.3671428571428 146.81142857142856 m -1, 0 a 1,1 0 1,0 2,0 a 1,1 0 1,0 -2,0 M 389.3671428571428 146.81142857142856 m -0.5, 0 a 0.5,0.5 0 1,0 1,0 a 0.5,0.5 0 1,0 -1,0  M389.3671428571428 146.81142857142856 L389.3671428571428 146.81142857142856 377.3671428571428 146.81142857142856 M 389.3671428571428 152.81142857142856 m -1, 0 a 1,1 0 1,0 2,0 a 1,1 0 1,0 -2,0 M 389.3671428571428 152.81142857142856 m -0.5, 0 a 0.5,0.5 0 1,0 1,0 a 0.5,0.5 0 1,0 -1,0  M389.3671428571428 152.81142857142856 L389.3671428571428 152.81142857142856 382.3671428571428 146.81142857142856 389.3671428571428 140.81142857142856 M 389.3671428571428 140.81142857142856 m -1, 0 a 1,1 0 1,0 2,0 a 1,1 0 1,0 -2,0 M 389.3671428571428 140.81142857142856 m -0.5, 0 a 0.5,0.5 0 1,0 1,0 a 0.5,0.5 0 1,0 -1,0  M377.3671428571428 146.81142857142856 Q 327.77 146.81142857142856, 278.17 49.66 T 178.98 -47.488571428571476 M 166.98 -47.488571428571476 m -1, 0 a 1,1 0 1,0 2,0 a 1,1 0 1,0 -2,0 M 166.98 -47.488571428571476 m -0.5, 0 a 0.5,0.5 0 1,0 1,0 a 0.5,0.5 0 1,0 -1,0  M166.98 -47.488571428571476 L166.98 -47.488571428571476 178.98 -47.488571428571476 M172.98 -41.488571428571476 L172.98 -41.488571428571476 172.98 -53.488571428571476" id="h2245539417" class="r"></path></g><g class="hrs"></g><g class="ts"><svg width="153" height="100" x="13.984285714285726" y="-129.48857142857148" id="h2390897942" class="t"><rect height="40" width="153" class="th"></rect><text x="13" y="25" class="tht">Dept_Managers</text><rect height="60" width="153" class="t-bg" y="40"></rect><text x="13" y="61" class="tf fk">dept_no<tspan x="140" class="ty">varchar(30)</tspan></text><text x="13" y="86" class="tf fk">emp_no<tspan x="140" class="ty">int</tspan></text></svg><svg width="176" height="225" x="15.175714285714262" y="-17.044285714285735" id="h1639608377" class="t"><rect height="40" width="176" class="th"></rect><text x="13" y="25" class="tht">employees</text><rect height="185" width="176" class="t-bg" y="40"></rect><text x="13" y="61" class="tf pk">emp_no<tspan x="163" class="ty">int</tspan></text><path d="M7,14A2,2 0 0,1 5,12A2,2 0 0,1 7,10A2,2 0 0,1 9,12A2,2 0 0,1 7,14M12.65,10C11.83,7.67 9.61,6 7, 6A6, 6 0 0, 0 1, 12A6, 6 0 0, 0 7, 18C9.61, 18 11.83, 16.33 12.65, 14H17V18H21V14H23V10H12.65Z" class="i pk" transform="translate(130, 48) scale(0.65)"></path><text x="13" y="86" class="tf fk">emp_title_id<tspan x="163" class="ty">varchar(50)</tspan></text><text x="13" y="111" class="tf">birth_date<tspan x="163" class="ty">date</tspan></text><text x="13" y="136" class="tf">first_name<tspan x="163" class="ty">varchar(30)</tspan></text><text x="13" y="161" class="tf">last_name<tspan x="163" class="ty">varchar(30)</tspan></text><text x="13" y="186" class="tf">sex<tspan x="163" class="ty">varchar(1)</tspan></text><text x="13" y="211" class="tf">hire_date<tspan x="163" class="ty">date</tspan></text></svg><svg width="153" height="100" x="371.8414285714287" y="-140.9828571428572" id="h3353995054" class="t"><rect height="40" width="153" class="th"></rect><text x="13" y="25" class="tht">Dept_Emp</text><rect height="60" width="153" class="t-bg" y="40"></rect><text x="13" y="61" class="tf fk">emp_no<tspan x="140" class="ty">int</tspan></text><text x="13" y="86" class="tf fk">dept_no<tspan x="140" class="ty">varchar(30)</tspan></text></svg><svg width="164" height="100" x="29.194285714285765" y="221.24142857142866" id="h311790747" class="t"><rect height="40" width="164" class="th"></rect><text x="13" y="25" class="tht">titles</text><rect height="60" width="164" class="t-bg" y="40"></rect><text x="13" y="61" class="tf pk">title_id<tspan x="151" class="ty">varchar(30)</tspan></text><path d="M7,14A2,2 0 0,1 5,12A2,2 0 0,1 7,10A2,2 0 0,1 9,12A2,2 0 0,1 7,14M12.65,10C11.83,7.67 9.61,6 7, 6A6, 6 0 0, 0 1, 12A6, 6 0 0, 0 7, 18C9.61, 18 11.83, 16.33 12.65, 14H17V18H21V14H23V10H12.65Z" class="i pk" transform="translate(69, 48) scale(0.65)"></path><text x="13" y="86" class="tf">job_title<tspan x="151" class="ty">varchar(50)</tspan></text></svg><svg width="173" height="100" x="-293.05" y="-125.09999999999992" id="h3708248841" class="t"><rect height="40" width="173" class="th"></rect><text x="13" y="25" class="tht">Departments</text><rect height="60" width="173" class="t-bg" y="40"></rect><text x="13" y="61" class="tf pk">dept_no<tspan x="160" class="ty">varchar(30)</tspan></text><path d="M7,14A2,2 0 0,1 5,12A2,2 0 0,1 7,10A2,2 0 0,1 9,12A2,2 0 0,1 7,14M12.65,10C11.83,7.67 9.61,6 7, 6A6, 6 0 0, 0 1, 12A6, 6 0 0, 0 7, 18C9.61, 18 11.83, 16.33 12.65, 14H17V18H21V14H23V10H12.65Z" class="i pk" transform="translate(78, 48) scale(0.65)"></path><text x="13" y="86" class="tf">dept_name<tspan x="160" class="ty">varchar(50)</tspan></text></svg><svg width="105" height="100" x="389.3671428571428" y="89.81142857142856" id="h2472833127" class="t"><rect height="40" width="105" class="th"></rect><text x="13" y="25" class="tht">salaries</text><rect height="60" width="105" class="t-bg" y="40"></rect><text x="13" y="61" class="tf fk">emp_no<tspan x="92" class="ty">int</tspan></text><text x="13" y="86" class="tf">salary<tspan x="92" class="ty">int</tspan></text></svg></g></g><text class="qdbd-link" x="10" y="20">www.quickdatabasediagrams.com</text></svg>